# xmcd CD database file
#
# Track frame offsets:
#	150
#	67166
#	134891
#	199753
#	264387
#
# Disc length: 4364 seconds
#
# Revision: 0
# Processed by: cddbd v1.5.2PL0 Copyright (c) Steve Scherf et al.
# Submitted via: CDex 1.70beta2
#
DISCID=51110a05
DTITLE=宮下富実夫 - 眠りのためのヒーリング
DYEAR=1900
DGENRE=New Age
TTITLE0=安眠
TTITLE1=愛
TTITLE2=眠り
TTITLE3=夢境
TTITLE4=眠りのゆらぎ
EXTD=
EXTT0=
EXTT1=
EXTT2=
EXTT3=
EXTT4=
PLAYORDER=
